<svg width="24" height="24" viewBox="0 0 24 24" fill="none" xmlns="http://www.w3.org/2000/svg">
<path fill-rule="evenodd" clip-rule="evenodd" d="M20 6H12V8H18V16V18C18.2626 18 18.5227 17.9483 18.7654 17.8478C19.008 17.7472 19.2285 17.5999 19.4142 17.4142C19.5999 17.2285 19.7472 17.008 19.8478 16.7654C19.9483 16.5227 20 16.2626 20 16V8H22C22 7.73736 21.9483 7.47728 21.8478 7.23463C21.7472 6.99198 21.5999 6.7715 21.4142 6.58579C21.2285 6.40007 21.008 6.25275 20.7654 6.15224C20.5227 6.05173 20.2626 6 20 6Z" fill="white"/>
<path fill-rule="evenodd" clip-rule="evenodd" d="M4 6H10V8H4V16H14V18H4C3.73736 18 3.47728 17.9483 3.23463 17.8478C2.99198 17.7472 2.7715 17.5999 2.58579 17.4142C2.40007 17.2285 2.25275 17.008 2.15224 16.7654C2.05173 16.5227 2 16.2626 2 16V8C2 7.73736 2.05173 7.47728 2.15224 7.23463C2.25275 6.99198 2.40007 6.7715 2.58579 6.58579C2.7715 6.40007 2.99198 6.25275 3.23463 6.15224C3.47728 6.05173 3.73736 6 4 6Z" fill="white"/>
</svg>
