<svg width="140" height="140" viewBox="0 0 140 140" fill="none" xmlns="http://www.w3.org/2000/svg">
<path d="M121.044 18.3631H18.9656V124.778H121.044V18.3631Z" fill="#5FA055" stroke="#5D5F5A" stroke-width="4.84" stroke-linecap="round" stroke-linejoin="round"/>
<path d="M112.934 18.3631H27.0654V116.629H112.934V18.3631Z" fill="white" stroke="#5D5F5A" stroke-width="4.84" stroke-linecap="round" stroke-linejoin="round"/>
<path d="M48.2339 81.3053H58.6946" stroke="#5D5F5A" stroke-width="4.38" stroke-linecap="round" stroke-linejoin="round"/>
<path d="M66.0537 81.3053H102.8" stroke="#5D5F5A" stroke-width="4.84" stroke-linecap="round" stroke-linejoin="round"/>
<path d="M48.2339 92.4673H102.8" stroke="#5D5F5A" stroke-width="4.84" stroke-linecap="round" stroke-linejoin="round"/>
<path d="M48.2339 103.62H67.7231" stroke="#5D5F5A" stroke-width="4.67" stroke-linecap="round" stroke-linejoin="round"/>
<path d="M74.9241 103.62H102.8" stroke="#5D5F5A" stroke-width="4.84" stroke-linecap="round" stroke-linejoin="round"/>
<path d="M43.0183 78.8457H38.0793V83.7847H43.0183V78.8457Z" fill="#5D5F5A"/>
<path d="M43.0183 89.9979H38.0793V94.9368H43.0183V89.9979Z" fill="#5D5F5A"/>
<path d="M43.0183 101.12H38.0793V106.059H43.0183V101.12Z" fill="#5D5F5A"/>
<path d="M95.7271 15.2219H44.3618V23.4206H95.7271V15.2219Z" fill="#5FA055" stroke="#5D5F5A" stroke-width="4.84" stroke-linecap="round" stroke-linejoin="round"/>
<path d="M83.5771 48.9057L82.5893 46.5053C83.5382 44.847 84.2718 43.0744 84.7724 41.2305L83.2709 39.7192L81.7596 38.2079C79.911 38.7084 78.1348 39.4455 76.4749 40.4008L74.0844 39.413C73.5835 37.5692 72.8499 35.7967 71.9014 34.1382H67.6243C66.6758 35.7967 65.9422 37.5692 65.4412 39.413L63.0508 40.4008C61.3909 39.4455 59.6147 38.7084 57.7661 38.2079L56.3042 39.7192L54.7928 41.2305C55.2934 43.0744 56.027 44.847 56.9759 46.5053L55.9881 48.9057C54.1399 49.4029 52.3636 50.1366 50.7034 51.0887V55.3164C52.3636 56.2685 54.1399 57.0023 55.9881 57.4995L56.9759 59.8998C56.0118 61.5624 55.2648 63.3418 54.7533 65.1944L56.3042 66.7255L57.8056 68.2368C59.6542 67.7363 61.4304 66.9992 63.0903 66.0439L65.4808 67.0317C65.9838 68.8747 66.7172 70.647 67.6638 72.3065H71.9409C72.873 70.6482 73.5932 68.8794 74.0844 67.0416L76.4749 66.0538C78.1348 67.0091 79.911 67.7461 81.7596 68.2467L83.2709 66.7353L84.7724 65.1944C84.2718 63.3505 83.5382 61.5779 82.5893 59.9196L83.5771 57.5192C85.4399 57.019 87.2297 56.2785 88.9013 55.3164V51.0887C87.2287 50.1335 85.4389 49.3997 83.5771 48.9057V48.9057ZM69.748 59.4454C68.5172 59.4454 67.314 59.0804 66.2907 58.3966C65.2673 57.7128 64.4696 56.7409 63.9986 55.6038C63.5276 54.4667 63.4044 53.2154 63.6445 52.0083C63.8846 50.8011 64.4773 49.6922 65.3476 48.8219C66.2179 47.9516 67.3268 47.3589 68.534 47.1188C69.7411 46.8787 70.9924 47.0019 72.1295 47.4729C73.2666 47.9439 74.2385 48.7416 74.9223 49.765C75.6062 50.7883 75.9711 51.9915 75.9711 53.2223C75.9685 54.8686 75.3148 56.447 74.1525 57.6129C72.9903 58.7788 71.414 59.4376 69.7678 59.4454H69.748Z" fill="white" stroke="#5D5F5A" stroke-width="4.55" stroke-linecap="round" stroke-linejoin="round"/>
<path d="M69.7678 59.4454C73.2047 59.4454 75.9909 56.6592 75.9909 53.2223C75.9909 49.7854 73.2047 46.9992 69.7678 46.9992C66.3309 46.9992 63.5447 49.7854 63.5447 53.2223C63.5447 56.6592 66.3309 59.4454 69.7678 59.4454Z" fill="white" stroke="#5D5F5A" stroke-width="4.55" stroke-linecap="round" stroke-linejoin="round"/>
</svg>
