<svg width="140" height="140" viewBox="0 0 140 140" fill="none" xmlns="http://www.w3.org/2000/svg">
<path d="M99.6289 49.9725C98.7618 45.3498 96.9455 40.9571 94.2949 37.0719L99.0066 32.3502L89.1978 22.5513L84.4861 27.2631C80.6002 24.6068 76.2031 22.7901 71.5756 21.929V15.2219H57.6773V21.929C53.0509 22.7937 48.6545 24.6101 44.7669 27.2631L40.0551 22.5513L30.2463 32.3502L34.968 37.0719C32.3094 40.9528 30.4924 45.3472 29.6339 49.9725H22.9268V63.8806H29.6339C30.4924 68.5059 32.3094 72.9003 34.968 76.7812L30.2463 81.5029L40.0551 91.3018L44.7669 86.59C48.6545 89.2429 53.0509 91.0593 57.6773 91.9241V98.6312H71.5756V91.9241C76.2031 91.063 80.6002 89.2463 84.4861 86.59L89.1978 91.3018L99.0066 81.5029L94.2949 76.7812C96.9455 72.896 98.7618 68.5033 99.6289 63.8806H106.326V49.9725H99.6289ZM64.6314 75.1711C61.023 75.1711 57.4956 74.1011 54.4953 72.0963C51.495 70.0916 49.1565 67.2422 47.7756 63.9084C46.3948 60.5747 46.0335 56.9063 46.7374 53.3672C47.4414 49.8281 49.179 46.5772 51.7306 44.0257C54.2821 41.4742 57.533 39.7365 61.0721 39.0326C64.6112 38.3286 68.2795 38.6899 71.6133 40.0708C74.9471 41.4517 77.7965 43.7901 79.8012 46.7904C81.8059 49.7907 82.876 53.3181 82.876 56.9265C82.876 61.7653 80.9538 66.4059 77.5323 69.8274C74.1107 73.2489 69.4702 75.1711 64.6314 75.1711V75.1711Z" fill="white" stroke="#5D5F5A" stroke-width="5.15" stroke-linecap="round" stroke-linejoin="round"/>
<path d="M64.6315 38.682C61.0231 38.682 57.4957 39.752 54.4954 41.7568C51.4951 43.7615 49.1566 46.6109 47.7758 49.9447C46.3949 53.2784 46.0336 56.9468 46.7375 60.4859C47.4415 64.025 49.1791 67.2758 51.7307 69.8274C54.2822 72.3789 57.5331 74.1166 61.0722 74.8205C64.6113 75.5245 68.2797 75.1632 71.6134 73.7823C74.9472 72.4014 77.7966 70.063 79.8013 67.0627C81.806 64.0624 82.8761 60.535 82.8761 56.9265C82.8761 52.0878 80.9539 47.4472 77.5324 44.0257C74.1109 40.6042 69.4703 38.682 64.6315 38.682V38.682Z" fill="white" stroke="#5D5F5A" stroke-width="5.15" stroke-linecap="round" stroke-linejoin="round"/>
<path d="M88.9015 37.6448C88.9015 34.119 87.8737 30.6696 85.9439 27.7187C84.0141 24.7679 81.2659 22.4435 78.0358 21.0301V37.6448H63.5152V21.0301C59.9581 22.5706 56.989 25.2115 55.044 28.5646C53.0991 31.9177 52.281 35.8062 52.7099 39.6588C53.1388 43.5113 54.7922 47.1247 57.427 49.9679C60.0617 52.8112 63.539 54.7343 67.3479 55.4547H64.5722V66.3205C63.5557 66.6189 62.6537 67.2186 61.9852 68.0405C61.3168 68.8623 60.9135 69.8676 60.8284 70.9236V119.395C60.8284 119.395 60.8284 124.857 67.2195 124.729H74.2328C74.2328 124.729 80.6337 125.42 80.6337 119.395V70.9433C80.5585 69.8865 80.1584 68.8788 79.4882 68.0583C78.818 67.2378 77.9105 66.6446 76.8899 66.36V55.4942H74.0846C78.2532 54.7241 82.0194 52.5158 84.727 49.2541C87.4346 45.9923 88.9119 41.8839 88.9015 37.6448Z" fill="#5D5F5A" stroke="white" stroke-width="11" stroke-linecap="round" stroke-linejoin="round"/>
<path d="M101.535 55.3856V65.9352H105.338H109.151V55.3856H111.868L113.142 45.6953L107.65 21.0104H105.338H103.037L97.5447 45.6953L98.8189 55.3856H101.535Z" fill="#5D5F5A" stroke="white" stroke-width="11" stroke-linecap="round" stroke-linejoin="round"/>
<path d="M112.46 74.6673H114.742C111.848 71.6052 111.522 66.0044 111.522 66.0044H99.293C99.293 66.0044 98.967 71.6052 96.0728 74.6673H98.3546C97.0899 74.7162 95.8957 75.2626 95.0318 76.1876C94.1679 77.1125 93.7042 78.3412 93.7416 79.6063V119.819C93.7042 121.084 94.1679 122.313 95.0318 123.238C95.8957 124.163 97.0899 124.709 98.3546 124.758H112.46C113.725 124.709 114.919 124.163 115.783 123.238C116.647 122.313 117.111 121.084 117.073 119.819V79.626C117.116 78.3576 116.655 77.1238 115.79 76.1946C114.926 75.2653 113.729 74.7162 112.46 74.6673V74.6673Z" fill="#5D5F5A" stroke="white" stroke-width="11" stroke-linecap="round" stroke-linejoin="round"/>
<path d="M76.89 55.4547H64.5723V69.1456H76.89V55.4547Z" fill="white" stroke="#5D5F5A" stroke-width="5.15" stroke-linecap="round" stroke-linejoin="round"/>
<path d="M77.937 21.0301V37.6547H63.5152V21.0301C59.6913 22.6882 56.5556 25.6135 54.6363 29.3133C52.717 33.0131 52.1314 37.2612 52.9781 41.3423C53.8248 45.4234 56.0521 49.088 59.2848 51.7188C62.5175 54.3497 66.5582 55.7861 70.7261 55.7861C74.8941 55.7861 78.9347 54.3497 82.1675 51.7188C85.4002 49.088 87.6275 45.4234 88.4742 41.3423C89.3209 37.2612 88.7353 33.0131 86.816 29.3133C84.8967 25.6135 81.761 22.6882 77.937 21.0301V21.0301Z" fill="white" stroke="#5D5F5A" stroke-width="5.15" stroke-linecap="round" stroke-linejoin="round"/>
<path d="M74.2327 66.0143H67.2194C61.0161 65.8562 60.8284 70.9532 60.8284 70.9532V119.424C60.8284 119.424 60.8284 124.887 67.2194 124.758H74.2327C74.2327 124.758 80.6336 125.45 80.6336 119.424V70.9433C79.9422 65.5302 74.2327 66.0143 74.2327 66.0143Z" fill="#5FA055" stroke="#5D5F5A" stroke-width="5.15" stroke-linecap="round" stroke-linejoin="round"/>
<path d="M70.7262 117.735C72.7228 117.735 74.3415 116.116 74.3415 114.12C74.3415 112.123 72.7228 110.504 70.7262 110.504C68.7295 110.504 67.1108 112.123 67.1108 114.12C67.1108 116.116 68.7295 117.735 70.7262 117.735Z" fill="white" stroke="#5D5F5A" stroke-width="5.15" stroke-linecap="round" stroke-linejoin="round"/>
<path d="M107.65 21.0104H105.338H103.037L97.5447 45.6953L98.8189 55.3856H105.338H111.868L113.142 45.6953L107.65 21.0104Z" fill="white" stroke="#5D5F5A" stroke-width="5.15" stroke-linecap="round" stroke-linejoin="round"/>
<path d="M105.338 55.3856H101.535V65.9352H105.338H109.151V55.3856H105.338Z" fill="white" stroke="#5D5F5A" stroke-width="5.15" stroke-linecap="round" stroke-linejoin="round"/>
<path d="M105.407 74.6673H98.3546C97.0899 74.7162 95.8957 75.2626 95.0318 76.1876C94.1679 77.1125 93.7042 78.3412 93.7416 79.6063V119.819C93.7042 121.084 94.1679 122.313 95.0318 123.238C95.8957 124.163 97.0899 124.709 98.3546 124.758H112.46C113.725 124.709 114.919 124.163 115.783 123.238C116.647 122.313 117.111 121.084 117.073 119.819V79.626C117.111 78.361 116.647 77.1323 115.783 76.2073C114.919 75.2824 113.725 74.736 112.46 74.6871L105.407 74.6673Z" fill="#5FA055" stroke="#5D5F5A" stroke-width="5.15" stroke-linecap="round" stroke-linejoin="round"/>
<path d="M111.522 66.0044H99.2932C99.2932 66.0044 98.9672 71.6051 96.073 74.6673H114.742C111.848 71.6051 111.522 66.0044 111.522 66.0044Z" fill="#5FA055" stroke="#5D5F5A" stroke-width="5.15" stroke-linecap="round" stroke-linejoin="round"/>
<path d="M105.348 117.735C107.345 117.735 108.964 116.116 108.964 114.12C108.964 112.123 107.345 110.504 105.348 110.504C103.352 110.504 101.733 112.123 101.733 114.12C101.733 116.116 103.352 117.735 105.348 117.735Z" fill="white" stroke="#5D5F5A" stroke-width="5.15" stroke-linecap="round" stroke-linejoin="round"/>
</svg>
