<svg width="24" height="24" viewBox="0 0 24 24" fill="#fff" xmlns="http://www.w3.org/2000/svg">
<path d="M2 9C2 7.89543 2.89543 7 4 7H20C21.1046 7 22 7.89543 22 9H2Z" fill="#fff"/>
<path d="M2 9H4V15C2.89543 15 2 14.1046 2 13V9Z" fill="#fff"/>
<rect x="6" y="11" width="15" height="2" rx="1" fill="#fff"/>
<path d="M4 15H20C20 16.1046 19.1046 17 18 17H6C4.89543 17 4 16.1046 4 15Z" fill="#fff"/>
<circle cx="18" cy="14" r="1" fill="#fff"/>
<path d="M17 12H19V14C19 14.5523 18.5523 15 18 15C17.4477 15 17 14.5523 17 14V12Z" fill="#fff"/>
</svg>
