<svg width="140" height="140" viewBox="0 0 140 140" fill="none" xmlns="http://www.w3.org/2000/svg">
<path d="M100.518 104.36L82.3918 99.5103V87.4197C78.622 89.5882 74.349 90.7295 70 90.7295C65.6509 90.7295 61.378 89.5882 57.6081 87.4197V99.5103L39.5117 104.36C45.3101 110.327 72.4053 134.607 100.518 104.36Z" fill="white" stroke="#5D5F5A" stroke-width="5.15" stroke-linecap="round" stroke-linejoin="round"/>
<path d="M70.0247 92.1612C70.0247 92.1612 37.9707 93.9589 42.3664 47.1968H97.6829C102.079 93.9589 70.0247 92.1612 70.0247 92.1612Z" fill="white" stroke="#5D5F5A" stroke-width="5.15" stroke-linecap="round" stroke-linejoin="round"/>
<path d="M75.487 30.6216L73.5707 15.2219H66.4092L64.562 30.6216H75.487Z" fill="#5FA055" stroke="#5D5F5A" stroke-width="5.15" stroke-linecap="round" stroke-linejoin="round"/>
<path d="M101.674 47.9673C101.674 39.8674 97.4162 31.6094 89.0299 26.2358C86.9101 24.8808 84.6434 23.7706 82.2734 22.9267L81.5918 19.3509C78.6924 18.2752 75.6568 17.6102 72.5732 17.3753L73.6499 27.9644H66.3501L67.4268 17.2864C64.3311 17.4479 61.2852 18.1326 58.4181 19.3114L57.6279 22.8872C53.8602 24.179 50.3894 26.2124 47.4205 28.8675C44.4515 31.5226 42.0445 34.7456 40.3415 38.3462C39.0186 41.3801 38.3456 44.6575 38.3659 47.9673H101.674Z" fill="white" stroke="#5D5F5A" stroke-width="5.15" stroke-linecap="round" stroke-linejoin="round"/>
<path d="M81.5918 19.8843L83.9625 35.5606" stroke="#5D5F5A" stroke-width="5.15" stroke-linecap="round" stroke-linejoin="round"/>
<path d="M55.6719 35.5606L58.4673 19.9337" stroke="#5D5F5A" stroke-width="5.15" stroke-linecap="round" stroke-linejoin="round"/>
<path d="M102.069 47.9673H38.0299C38.0299 47.9673 35.1456 48.1253 35.195 55.7017H104.854C104.904 48.2142 102.069 47.9673 102.069 47.9673Z" fill="#5FA055" stroke="#5D5F5A" stroke-width="5.15" stroke-linecap="round" stroke-linejoin="round"/>
<path d="M124.057 122.249C121.015 110.692 113.191 107.166 109.892 106.138C102.642 103.837 95.49 101.338 95.49 101.338C95.0948 101.723 94.759 102.069 94.3639 102.414C85.9775 110.425 77.68 114.1 70.0049 115.206C62.3297 114.1 54.0323 110.425 45.636 102.414C45.2409 102.069 44.905 101.723 44.5099 101.338C44.5099 101.338 37.3583 103.837 30.1079 106.138C26.8284 107.126 18.9853 110.692 15.9528 122.249L15.5083 124.778H124.462L124.057 122.249Z" fill="#5FA055" stroke="#5D5F5A" stroke-width="5.15" stroke-linecap="round" stroke-linejoin="round"/>
</svg>
