<svg width="140" height="140" viewBox="0 0 140 140" fill="none" xmlns="http://www.w3.org/2000/svg">
<path d="M109.645 54.3286C109.648 47.0346 107.641 39.8809 103.844 33.653C100.047 27.4251 94.607 22.364 88.1219 19.0254C81.6367 15.6868 74.357 14.1999 67.0821 14.728C59.8072 15.2561 52.8185 17.7786 46.8835 22.0187C40.9485 26.2588 36.2967 32.0525 33.4389 38.7634C30.5812 45.4743 29.628 52.8429 30.6841 60.0601C31.7402 67.2773 34.7648 74.0638 39.4256 79.6745C44.0863 85.2852 50.2031 89.503 57.1042 91.8648V112.431C57.1042 114.149 57.7869 115.797 59.0022 117.013C60.2174 118.228 61.8656 118.911 63.5842 118.911H76.4255C77.2768 118.912 78.12 118.745 78.9068 118.42C79.6936 118.095 80.4084 117.618 81.0104 117.016C81.6124 116.414 82.0896 115.699 82.4148 114.912C82.74 114.125 82.9067 113.282 82.9054 112.431V91.8648C90.7171 89.1731 97.4931 84.1088 102.287 77.3793C107.081 70.6498 109.653 62.5911 109.645 54.3286V54.3286Z" fill="white" stroke="#5D5F5A" stroke-width="4.2" stroke-linecap="round" stroke-linejoin="round"/>
<path d="M70.0047 125.321C71.6841 125.316 73.2931 124.646 74.4797 123.458C75.6663 122.269 76.3339 120.659 76.3365 118.98H63.6631C63.6657 120.661 64.3347 122.272 65.5234 123.461C66.7121 124.65 68.3236 125.319 70.0047 125.321V125.321Z" fill="#5FA055" stroke="#5D5F5A" stroke-width="4.2" stroke-linecap="round" stroke-linejoin="round"/>
<path d="M82.9055 101.19H57.0945V109.793H82.9055V101.19Z" fill="#5FA055" stroke="#5D5F5A" stroke-width="4.2" stroke-linecap="round" stroke-linejoin="round"/>
<path d="M70.0049 101.19V70.0049" stroke="#5D5F5A" stroke-width="4.2" stroke-linecap="round" stroke-linejoin="round"/>
<path d="M63.5546 50.6936C61.0846 48.2176 58.0734 46.349 54.7583 45.2348C51.4432 44.1206 47.9147 43.7914 44.4507 44.2729C43.257 47.8282 43.0785 51.6459 43.9355 55.2969C44.7924 58.948 46.6508 62.2876 49.3016 64.9405C51.9524 67.5934 55.2906 69.4543 58.941 70.314C62.5914 71.1738 66.4092 70.9984 69.9654 69.8074C70.4398 66.343 70.1081 62.8158 68.9962 59.5005C67.8842 56.1852 66.022 53.1713 63.5546 50.6936V50.6936Z" fill="#5FA055" stroke="#5D5F5A" stroke-width="4.2" stroke-linecap="round" stroke-linejoin="round"/>
<path d="M75.655 60.8184C77.7017 58.7747 80.1932 57.2316 82.9348 56.3097C85.6764 55.3879 88.5939 55.1122 91.4597 55.5041C92.4484 58.4489 92.5958 61.6112 91.8853 64.6352C91.1749 67.6592 89.6348 70.425 87.4383 72.6215C85.2418 74.818 82.476 76.3581 79.452 77.0685C76.428 77.779 73.2657 77.6316 70.3209 76.6429C69.9344 73.7727 70.2146 70.852 71.1397 68.1077C72.0648 65.3633 73.6098 62.869 75.655 60.8184Z" fill="#5FA055" stroke="#5D5F5A" stroke-width="4.2" stroke-linecap="round" stroke-linejoin="round"/>
</svg>
